Coordinates
version=1
nRows=4
nColumns=63
inDegrees=yes

Units are S.I. units (second, meters, Newtons, ...)
If the header above contains a line with 'inDegrees', this indicates whether rotational values are in degrees (yes) or radians (no).

endheader
time	pelvis_tilt	pelvis_list	pelvis_rotation	pelvis_tx	pelvis_ty	pelvis_tz	hip_flexion_r	hip_adduction_r	hip_rotation_r	knee_angle_r	knee_angle_r_beta	ankle_angle_r	subtalar_angle_r	mtp_angle_r	hip_flexion_l	hip_adduction_l	hip_rotation_l	knee_angle_l	knee_angle_l_beta	ankle_angle_l	subtalar_angle_l	mtp_angle_l	L5_S1_Flex_Ext	L5_S1_Lat_Bending	L5_S1_axial_rotation	L4_L5_Flex_Ext	L4_L5_Lat_Bending	L4_L5_axial_rotation	L3_L4_Flex_Ext	L3_L4_Lat_Bending	L3_L4_axial_rotation	L2_L3_Flex_Ext	L2_L3_Lat_Bending	L2_L3_axial_rotation	L1_L2_Flex_Ext	L1_L2_Lat_Bending	L1_L2_axial_rotation	L1_T12_Flex_Ext	L1_T12_Lat_Bending	L1_T12_axial_rotation	Abs_r3	Abs_r2	Abs_r1	Abs_t1	Abs_t2	neck_flexion	neck_bending	neck_rotation	arm_flex_r	arm_add_r	arm_rot_r	elbow_flex_r	pro_sup_r	wrist_flex_r	wrist_dev_r	arm_flex_l	arm_add_l	arm_rot_l	elbow_flex_l	pro_sup_l	wrist_flex_l	wrist_dev_l
      5.11864407	     -3.24160009	     -0.02508133	     82.60269743	      0.22783691	      0.82617702	      0.70345781	      1.26595704	     -5.28673420	     -9.71701541	     10.79463970	      0.18840200	     25.28179316	     17.66114646	      0.00000000	      0.14439411	      2.58945658	     -8.07416599	     11.11922697	      0.19406712	     17.80061025	     -9.25791120	      0.00000000	     -0.19868638	     -0.14479188	      0.90350395	     -0.36898048	     -0.19257319	      0.95997295	     -0.32642186	     -0.35204697	      0.95997295	     -0.22707867	     -0.35204697	      0.79056596	     -0.18450017	     -0.29525959	      0.73409696	     -0.11352940	     -0.22428261	      0.67762796	     -1.41919696	     -1.63791465	      5.02501791	      0.00000000	      0.00000000	      1.12767183	     -6.40290966	    -11.22351819	     29.38646947	     -9.74503588	    -27.35757604	    122.46922374	     86.59222432	     -4.46496110	     24.43267930	     95.27393620	    -18.54483836	     52.78211384	    103.07112347	     81.25727972	      1.27698449	     22.35756719
      5.13559322	     -3.16069465	     -0.01852463	     82.80935182	      0.22725200	      0.82653736	      0.70287029	      1.12336462	     -5.20992934	     -9.92075871	     10.69214453	      0.18661313	     25.15249609	     17.61390663	      0.00000000	      0.05710726	      2.52542090	     -7.96456344	     11.00168105	      0.19201556	     17.75099968	     -9.06759532	      0.00000000	     -0.18170278	     -0.12480135	      0.92897275	     -0.33744023	     -0.16598579	      0.98703354	     -0.29851949	     -0.30344199	      0.98703354	     -0.20766810	     -0.30344199	      0.81285115	     -0.16872920	     -0.25449490	      0.75479036	     -0.10382497	     -0.19331728	      0.69672956	     -1.29788477	     -1.41177779	      5.16666773	      0.00000000	      0.00000000	      0.44096275	     -5.78862868	    -10.96129336	     28.43212462	     -9.78844642	    -26.63926348	    124.25679264	     85.94715203	     -4.03580565	     26.87857247	     92.29497193	    -17.78190524	     50.88170416	    102.95890059	     83.79783674	      2.47369157	     20.43515593
      5.15254237	     -3.04052701	      0.04713786	     83.08975530	      0.22674490	      0.82678864	      0.70245796	      0.86761390	     -5.08533138	    -10.23385664	     10.51946097	      0.18359923	     25.05673561	     17.63632431	      0.00000000	     -0.00117734	      2.40220131	     -7.67684163	     11.10853474	      0.19388051	     17.80229710	     -9.03412081	      0.00000000	     -0.19031343	     -0.10538071	      0.90311644	     -0.35343107	     -0.14015634	      0.95956122	     -0.31266593	     -0.25622266	      0.95956122	     -0.21750922	     -0.25622266	      0.79022689	     -0.17672505	     -0.21489234	      0.73378211	     -0.10874509	     -0.16323472	      0.67733733	     -1.35938979	     -1.19208766	      5.02286272	      0.00000000	      0.00000000	      0.21065110	     -5.40021060	    -11.07730443	     27.45624245	    -10.01058819	    -25.52104503	    126.57383235	     84.52389674	     -3.53848306	     30.32613717	     89.05606596	    -17.03644301	     47.65891156	    103.18269783	     87.21856402	      6.81601361	     18.23347409
      5.16949153	     -3.05555857	      0.05337665	     83.56207380	      0.22640560	      0.82688341	      0.70158599	      0.64742197	     -5.08357417	    -10.72529853	     10.39104456	      0.18135794	     25.02712991	     17.68003631	      0.00000000	     -0.07331471	      2.40854304	     -7.14913804	     11.06097102	      0.19305036	     17.74848452	     -9.02690340	      0.00000000	     -0.18821066	     -0.10675569	      0.80428625	     -0.34952601	     -0.14198506	      0.85455414	     -0.30921129	     -0.25956578	      0.85455414	     -0.21510596	     -0.25956578	      0.70375047	     -0.17477242	     -0.21769620	      0.65348258	     -0.10754357	     -0.16536456	      0.60321469	     -1.34436992	     -1.20764169	      4.47319884	      0.00000000	      0.00000000	      0.13820230	     -4.67058124	    -10.87412961	     26.23154407	    -10.07337276	    -23.84074458	    128.90045174	     82.37113323	     -3.38735011	     32.25654538	     85.29928653	    -16.41295509	     43.51807749	    104.45723074	     88.19067391	     11.73597715	     17.65170734
